<?xml version="1.0" standalone="no"?>
<!DOCTYPE svg PUBLIC "-//W3C//DTD SVG 20010904//EN"
 "http://www.w3.org/TR/2001/REC-SVG-20010904/DTD/svg10.dtd">
<svg version="1.0" xmlns="http://www.w3.org/2000/svg"
 width="512.000000pt" height="512.000000pt" viewBox="0 0 512.000000 512.000000"
 preserveAspectRatio="xMidYMid meet">
<metadata>
Created by potrace 1.14, written by Peter Selinger 2001-2017
</metadata>
<g transform="translate(0.000000,512.000000) scale(0.100000,-0.100000)"
fill="#000000" stroke="none">
<path d="M395 5106 c-193 -48 -343 -201 -384 -394 -16 -76 -16 -4228 0 -4304
42 -197 200 -355 397 -397 76 -16 4228 -16 4304 0 197 42 355 200 397 397 16
76 16 4228 0 4304 -42 197 -200 355 -397 397 -80 17 -4248 14 -4317 -3z m1537
-2546 c219 -547 398 -999 398 -1003 0 -5 -57 -7 -126 -5 -120 3 -127 4 -147
28 -12 14 -65 137 -117 273 l-95 247 -451 0 -451 0 -93 -242 c-51 -134 -99
-252 -107 -264 -7 -11 -25 -26 -39 -32 -31 -15 -244 -16 -244 -2 0 10 775
1952 791 1983 9 16 24 17 146 15 l137 -3 398 -995z m910 991 c17 -6 117 -176
390 -662 201 -360 375 -676 386 -704 l19 -49 22 48 c11 27 21 50 21 52 0 17
707 1285 726 1302 24 21 33 22 147 20 l122 -3 0 -1000 0 -1000 -117 -3 -118
-3 -2 798 -3 798 -344 -628 c-233 -426 -353 -635 -374 -653 -27 -23 -38 -26
-89 -22 -46 3 -64 10 -82 29 -13 13 -169 287 -349 609 -179 322 -336 603 -349
626 l-23 41 0 -796 0 -796 -117 -3 -118 -3 0 1006 0 1005 114 0 c63 0 125 -4
138 -9z"/>
<path d="M1375 3235 c-13 -47 -222 -597 -336 -887 l-19 -48 374 0 374 0 -160
413 c-88 226 -172 450 -188 497 l-28 85 -17 -60z"/>
</g>
</svg>
